<svg width="77" height="80" viewBox="0 0 77 80" fill="none" xmlns="http://www.w3.org/2000/svg">
<path d="M72.0367 69.1318C63.588 61.1426 50.0558 53.2254 40.3184 46.2078C38.3494 44.8043 32.4425 40.8457 30.9389 38.6505C31.0463 38.6145 31.1179 38.5785 31.2253 38.5425C31.3327 38.5065 31.4043 38.4705 31.5117 38.4705C31.5475 38.4705 31.5475 38.4705 31.5833 38.4705C31.6907 38.4345 31.7981 38.4345 31.9055 38.3986H31.9413C32.4067 38.3266 32.9437 38.2546 33.5165 38.2186H33.5523C34.2683 38.1826 35.0201 38.1826 35.8076 38.2186C35.8434 38.2186 35.8434 38.2186 35.8792 38.2186C36.0224 38.2186 36.1656 38.2186 36.273 38.2186C36.3804 38.2186 36.5236 38.2186 36.631 38.2186H36.6668C39.7814 38.3266 43.0391 38.4345 44.4353 37.031C44.9365 36.5272 45.1871 35.8435 45.1155 34.8358C44.6501 29.1498 24.137 23.8596 19.0177 22.996C18.3375 22.888 17.6573 22.816 16.9413 22.7081C16.6191 22.0243 16.2969 21.3765 15.939 20.6928C15.8674 20.5848 15.8316 20.5128 15.8316 20.5128C11.7504 12.6676 6.23731 5.4341 0.0440048 0C5.91511 6.08187 10.927 13.9991 14.3638 22.5281C6.8459 22.1682 -1.20898 24.1116 0.151403 33.3243C0.187202 33.4683 0.187203 33.6122 0.223002 33.7562C0.258801 34.0081 0.294601 34.224 0.3662 34.4759C0.402 34.6559 0.473598 34.8718 0.509397 35.0877C0.509397 35.0877 0.509397 35.0877 0.509397 35.1237C0.580996 35.3396 0.616796 35.5556 0.724195 35.7715C2.83636 42.3572 11.285 56.5002 17.4067 56.7881C19.1609 56.8601 20.4139 56.2123 21.3089 55.1327C22.8124 53.3333 23.3136 50.3824 23.3852 47.6473C23.3852 47.3954 23.3852 47.1435 23.3852 46.8916C23.3852 46.8556 23.3852 46.8556 23.3852 46.8196C23.3852 46.5677 23.3852 46.3158 23.3852 46.0639V46.0279C23.3852 45.812 23.3852 45.596 23.3494 45.3801C23.3494 45.3441 23.3494 45.3081 23.3494 45.2362C23.3494 45.0202 23.3136 44.8043 23.3136 44.5884C23.3136 44.5524 23.3136 44.5524 23.3136 44.5164C23.3136 44.3365 23.2778 44.1565 23.2778 43.9766C23.2778 43.9406 23.2778 43.8686 23.2778 43.8327C23.242 43.6527 23.242 43.4728 23.2062 43.2928C22.7051 38.9744 21.6311 34.5479 20.0917 30.2294C20.0917 30.2294 20.0917 30.2294 20.0917 30.1934C20.0559 30.0855 19.9843 29.9415 19.9485 29.7616C19.9127 29.6176 19.8411 29.4737 19.8053 29.3297C19.5189 28.574 19.1967 27.7103 19.1967 27.7103C25.1752 28.8259 32.8721 31.0931 37.6692 33.6482C34.0893 33.5403 29.9007 33.3603 27.6096 35.3756C22.0965 40.2339 34.6263 47.7553 38.0272 49.8066C48.0511 55.7805 63.9102 63.4818 72.3589 70.7512C75.5092 73.4503 78.9102 76.9411 74.5068 80C79.8052 76.9771 75.1512 72.1547 72.0367 69.1318ZM17.1203 30.8052C17.8005 33.3963 18.3375 36.0234 18.6597 38.6145C18.8387 39.874 18.9461 41.0976 19.0177 42.3572V42.3932C19.0535 42.789 19.0535 43.2209 19.0893 43.6167C19.1251 44.5524 18.9461 52.0738 17.6573 52.2177C17.5857 52.2177 17.5141 52.2177 17.4425 52.2177C17.4067 52.2177 17.4067 52.2177 17.3709 52.2177C17.3351 52.2177 17.2635 52.1817 17.1919 52.1817C17.1561 52.1817 17.1203 52.1457 17.0845 52.1457C17.0129 52.1098 16.9771 52.1098 16.9055 52.0738C16.8697 52.0738 16.8339 52.0378 16.7981 52.0378C16.7265 52.0018 16.6549 51.9658 16.5833 51.9298L16.5475 51.8938C16.4401 51.8219 16.3685 51.7859 16.2612 51.7139C16.2254 51.6779 16.1896 51.6419 16.1538 51.6419C16.0822 51.6059 16.0464 51.534 15.9748 51.498C15.939 51.462 15.8674 51.426 15.8316 51.39C15.76 51.354 15.7242 51.282 15.6526 51.2461C15.6168 51.2101 15.5452 51.1741 15.5094 51.1021C15.4378 51.0301 15.402 50.9942 15.3304 50.9222C15.2588 50.8502 15.1872 50.7782 15.1156 50.7062C15.044 50.6343 14.9724 50.5623 14.9008 50.4543C14.8292 50.3824 14.7934 50.3104 14.7218 50.2384C14.686 50.2024 14.6144 50.1305 14.5786 50.0945C14.507 50.0225 14.4354 49.9505 14.3638 49.8785C14.328 49.8426 14.2564 49.7706 14.2206 49.7346C14.149 49.6626 14.0774 49.5906 14.0058 49.4827C13.97 49.4467 13.9342 49.3747 13.8984 49.3387C13.7194 49.1228 13.5404 48.9069 13.3614 48.691C10.8912 45.632 8.31368 41.4935 7.59769 40.2339C7.45449 39.946 7.31129 39.6941 7.16809 39.4422C7.13229 39.4062 7.13229 39.3702 7.0965 39.3342C7.0249 39.1903 6.9533 39.0463 6.8459 38.9024C6.8101 38.7944 6.7385 38.7224 6.7027 38.6145C6.6311 38.5065 6.5953 38.3986 6.5237 38.2546C6.48791 38.1466 6.41631 38.0387 6.38051 37.9307C6.30891 37.7868 6.23731 37.6068 6.16571 37.4629C6.12991 37.3549 6.09411 37.283 6.02251 37.175C5.98671 37.067 5.91511 36.9591 5.87931 36.8511C5.84351 36.7431 5.77192 36.6352 5.73612 36.5272C5.66452 36.3833 5.62872 36.2393 5.55712 36.0954C5.52132 35.9874 5.48552 35.9154 5.44972 35.8075C5.41392 35.7355 5.37812 35.6275 5.34232 35.5556C5.30652 35.4116 5.23492 35.2677 5.19912 35.1237C5.16333 35.0157 5.12753 34.9078 5.09173 34.8358C5.05593 34.7278 5.02013 34.6199 4.98433 34.5479C4.94853 34.4759 4.94853 34.404 4.91273 34.332C4.80533 33.9721 4.73373 33.6482 4.66213 33.3243C4.66213 33.2883 4.66213 33.2164 4.62633 33.1804C4.55473 32.8565 4.51893 32.4966 4.51893 32.2087C4.51893 32.1727 4.51893 32.1368 4.51893 32.1368C4.51893 31.8129 4.51894 31.489 4.55474 31.2011V31.1651C4.59053 30.8412 4.66213 30.5533 4.76953 30.3014C4.76953 30.3014 4.76953 30.3014 4.76953 30.2654C4.87693 29.9775 4.98433 29.7256 5.16332 29.4737C5.34232 29.2218 5.52132 29.0058 5.77192 28.7899C5.98671 28.574 6.27311 28.3941 6.5595 28.2141C7.99148 27.3864 10.211 27.0265 13.4688 27.1345C14.2206 27.1705 15.1156 27.2425 16.0822 27.3504L17.1203 30.8052Z" fill="#FF6C1C"/>
</svg>
