<svg width="300" height="80" viewBox="0 0 300 80" fill="none" xmlns="http://www.w3.org/2000/svg">
<path d="M72.0366 69.1317C63.588 61.1426 50.0558 53.2253 40.3183 46.2078C38.3494 44.8043 32.4425 40.8457 30.9389 38.6504C31.0463 38.6145 31.1179 38.5785 31.2253 38.5425C31.3327 38.5065 31.4043 38.4705 31.5117 38.4705C31.5475 38.4705 31.5475 38.4705 31.5833 38.4705C31.6907 38.4345 31.7981 38.4345 31.9055 38.3985H31.9413C32.4067 38.3266 32.9437 38.2546 33.5165 38.2186H33.5523C34.2682 38.1826 35.02 38.1826 35.8076 38.2186C35.8434 38.2186 35.8434 38.2186 35.8792 38.2186C36.0224 38.2186 36.1656 38.2186 36.273 38.2186C36.3804 38.2186 36.5236 38.2186 36.631 38.2186H36.6668C39.7814 38.3266 43.0391 38.4345 44.4353 37.031C44.9365 36.5272 45.1871 35.8434 45.1155 34.8358C44.6501 29.1498 24.137 23.8596 19.0177 22.9959C18.3375 22.888 17.6573 22.816 16.9413 22.708C16.6191 22.0243 16.2969 21.3765 15.9389 20.6927C15.8673 20.5848 15.8315 20.5128 15.8315 20.5128C11.7504 12.6676 6.2373 5.43409 0.0440048 0C5.91511 6.08187 10.927 13.9991 14.3638 22.5281C6.8459 22.1682 -1.20898 24.1115 0.151403 33.3243C0.187202 33.4683 0.187202 33.6122 0.223002 33.7562C0.258801 34.0081 0.294601 34.224 0.3662 34.4759C0.401999 34.6558 0.473597 34.8718 0.509397 35.0877C0.509397 35.0877 0.509397 35.0877 0.509397 35.1237C0.580996 35.3396 0.616796 35.5555 0.724194 35.7715C2.83636 42.3571 11.285 56.5002 17.4067 56.7881C19.1609 56.8601 20.4139 56.2123 21.3089 55.1327C22.8124 53.3333 23.3136 50.3823 23.3852 47.6473C23.3852 47.3954 23.3852 47.1435 23.3852 46.8916C23.3852 46.8556 23.3852 46.8556 23.3852 46.8196C23.3852 46.5677 23.3852 46.3158 23.3852 46.0638V46.0279C23.3852 45.8119 23.3852 45.596 23.3494 45.3801C23.3494 45.3441 23.3494 45.3081 23.3494 45.2361C23.3494 45.0202 23.3136 44.8043 23.3136 44.5884C23.3136 44.5524 23.3136 44.5524 23.3136 44.5164C23.3136 44.3364 23.2778 44.1565 23.2778 43.9766C23.2778 43.9406 23.2778 43.8686 23.2778 43.8326C23.242 43.6527 23.242 43.4728 23.2062 43.2928C22.705 38.9743 21.6311 34.5479 20.0917 30.2294C20.0917 30.2294 20.0917 30.2294 20.0917 30.1934C20.0559 30.0854 19.9843 29.9415 19.9485 29.7616C19.9127 29.6176 19.8411 29.4737 19.8053 29.3297C19.5189 28.574 19.1967 27.7103 19.1967 27.7103C25.1752 28.8259 32.8721 31.0931 37.6692 33.6482C34.0892 33.5402 29.9007 33.3603 27.6096 35.3756C22.0964 40.2339 34.6262 47.7552 38.0272 49.8065C48.051 55.7804 63.9102 63.4817 72.3588 70.7512C75.5092 73.4502 78.9101 76.941 74.5068 79.9999C79.8051 76.977 75.1512 72.1547 72.0366 69.1317ZM17.1203 30.8052C17.8005 33.3963 18.3375 36.0234 18.6597 38.6145C18.8387 39.874 18.9461 41.0976 19.0177 42.3571V42.3931C19.0535 42.789 19.0535 43.2208 19.0893 43.6167C19.1251 44.5524 18.9461 52.0737 17.6573 52.2177C17.5857 52.2177 17.5141 52.2177 17.4425 52.2177C17.4067 52.2177 17.4067 52.2177 17.3709 52.2177C17.3351 52.2177 17.2635 52.1817 17.1919 52.1817C17.1561 52.1817 17.1203 52.1457 17.0845 52.1457C17.0129 52.1097 16.9771 52.1097 16.9055 52.0737C16.8697 52.0737 16.8339 52.0377 16.7981 52.0377C16.7265 52.0018 16.6549 51.9658 16.5833 51.9298L16.5475 51.8938C16.4401 51.8218 16.3685 51.7858 16.2611 51.7139C16.2253 51.6779 16.1895 51.6419 16.1537 51.6419C16.0821 51.6059 16.0463 51.5339 15.9747 51.4979C15.9389 51.4619 15.8673 51.426 15.8315 51.39C15.7599 51.354 15.7241 51.282 15.6526 51.246C15.6168 51.21 15.5452 51.1741 15.5094 51.1021C15.4378 51.0301 15.402 50.9941 15.3304 50.9221C15.2588 50.8502 15.1872 50.7782 15.1156 50.7062C15.044 50.6342 14.9724 50.5623 14.9008 50.4543C14.8292 50.3823 14.7934 50.3104 14.7218 50.2384C14.686 50.2024 14.6144 50.1304 14.5786 50.0944C14.507 50.0225 14.4354 49.9505 14.3638 49.8785C14.328 49.8425 14.2564 49.7705 14.2206 49.7346C14.149 49.6626 14.0774 49.5906 14.0058 49.4826C13.97 49.4467 13.9342 49.3747 13.8984 49.3387C13.7194 49.1228 13.5404 48.9068 13.3614 48.6909C10.8912 45.632 8.31367 41.4934 7.59768 40.2339C7.45448 39.946 7.31129 39.6941 7.16809 39.4422C7.13229 39.4062 7.13229 39.3702 7.09649 39.3342C7.02489 39.1903 6.95329 39.0463 6.8459 38.9024C6.8101 38.7944 6.7385 38.7224 6.7027 38.6145C6.6311 38.5065 6.5953 38.3985 6.5237 38.2546C6.4879 38.1466 6.4163 38.0387 6.3805 37.9307C6.3089 37.7867 6.2373 37.6068 6.16571 37.4629C6.12991 37.3549 6.09411 37.2829 6.02251 37.175C5.98671 37.067 5.91511 36.959 5.87931 36.8511C5.84351 36.7431 5.77191 36.6352 5.73611 36.5272C5.66451 36.3832 5.62871 36.2393 5.55711 36.0953C5.52132 35.9874 5.48552 35.9154 5.44972 35.8074C5.41392 35.7355 5.37812 35.6275 5.34232 35.5555C5.30652 35.4116 5.23492 35.2676 5.19912 35.1237C5.16332 35.0157 5.12752 34.9078 5.09172 34.8358C5.05592 34.7278 5.02012 34.6199 4.98432 34.5479C4.94852 34.4759 4.94853 34.4039 4.91273 34.332C4.80533 33.9721 4.73373 33.6482 4.66213 33.3243C4.66213 33.2883 4.66213 33.2163 4.62633 33.1804C4.55473 32.8565 4.51893 32.4966 4.51893 32.2087C4.51893 32.1727 4.51893 32.1367 4.51893 32.1367C4.51893 31.8128 4.51893 31.489 4.55473 31.2011V31.1651C4.59053 30.8412 4.66213 30.5533 4.76953 30.3014C4.76953 30.3014 4.76953 30.3014 4.76953 30.2654C4.87693 29.9775 4.98432 29.7256 5.16332 29.4737C5.34232 29.2217 5.52132 29.0058 5.77191 28.7899C5.98671 28.574 6.2731 28.394 6.5595 28.2141C7.99148 27.3864 10.211 27.0265 13.4688 27.1345C14.2206 27.1705 15.1156 27.2424 16.0821 27.3504L17.1203 30.8052Z" fill="#FF6C1C"/>
<path d="M97.3903 41.628V36.4087C97.3903 35.0555 97.3903 33.509 97.291 31.7693C97.1917 30.0295 97.0925 28.6763 96.8939 27.7098L92.7246 27.1299V26.9366H104.141C106.325 26.9366 108.012 27.3232 109.303 28.1931C110.593 29.063 111.487 30.0295 111.983 31.0927C112.479 32.1559 112.777 33.1224 112.777 33.8957C112.777 34.9589 112.479 35.9254 111.983 36.7953C111.487 37.6652 110.792 38.3418 109.998 38.825C109.203 39.3083 108.409 39.5983 107.516 39.6949V39.7916C108.31 40.0815 109.005 40.4681 109.501 41.0481C109.898 41.4347 110.395 42.0146 110.891 42.6912C111.387 43.3678 112.082 44.431 112.976 45.5908C113.869 46.8473 114.564 47.8139 115.06 48.4904C115.557 49.167 116.053 49.7469 116.549 50.2302C117.542 51.1967 118.435 51.68 119.428 51.68V51.8733H116.45C114.762 51.8733 113.373 51.3901 112.38 50.4235C111.983 50.0369 111.586 49.5536 111.189 49.0704C110.792 48.5871 110.196 47.7172 109.303 46.4607C108.508 45.3008 107.714 44.2377 107.218 43.4644C106.622 42.6912 106.225 42.1113 105.828 41.8213C105.332 41.338 104.835 41.0481 104.438 40.8548C104.041 40.6615 103.446 40.5648 102.652 40.5648C101.957 40.5648 101.361 40.5648 100.964 40.6614C100.865 41.2414 100.865 41.918 100.865 42.6912V45.7841C100.865 47.1373 100.964 48.8771 101.262 51.0035L105.63 51.5834V51.7767H92.7246V51.5834L96.7946 51.0035C96.9932 49.8436 97.0925 48.2971 97.1917 46.1707C97.3903 44.0444 97.3903 42.5945 97.3903 41.628ZM97.7873 27.6131V51.1001H99.0778V27.6131H97.7873ZM100.865 33.8957V36.6986C100.865 37.6652 100.865 38.6317 100.964 39.405C101.46 39.5016 102.056 39.5016 102.949 39.5016C104.438 39.5016 105.63 39.2116 106.523 38.7284C107.416 38.2451 108.111 37.5685 108.508 36.7953C108.906 36.022 109.104 35.1522 109.104 34.1856C109.104 33.2191 108.906 32.3492 108.508 31.576C108.111 30.8027 107.615 30.1261 107.019 29.5462C106.424 28.9663 105.729 28.5797 105.034 28.2897C104.339 27.9998 103.545 27.8065 102.85 27.8065C102.155 27.8065 101.659 27.8064 101.262 27.9031C101.163 28.5797 101.063 29.4496 100.964 30.7061C100.865 32.0592 100.865 33.1224 100.865 33.8957ZM102.552 27.3232V27.5165C104.141 27.5165 105.431 27.9031 106.523 28.6763C107.615 29.3529 108.409 30.2228 108.906 31.286C109.402 32.3492 109.6 33.3157 109.6 34.3789C109.6 36.602 108.608 38.2451 106.622 39.3083L106.722 39.405C107.913 39.115 108.906 38.4384 109.7 37.5685C110.494 36.602 110.891 35.4421 110.891 34.089C110.891 33.0258 110.692 32.1559 110.295 31.286C109.898 30.4161 109.303 29.7395 108.608 29.1596C107.913 28.5797 107.119 28.1931 106.225 27.9031C105.332 27.6131 104.438 27.4198 103.545 27.4198H102.552V27.3232ZM107.119 42.3046L110.891 47.6206C111.784 48.8771 112.579 49.7469 113.273 50.3269C113.968 50.9068 114.862 51.1001 115.755 51.1001V50.9068C114.862 50.6168 113.67 49.457 112.181 47.4272L109.203 43.1745C108.508 42.2079 107.913 41.5313 107.416 41.0481C106.821 40.5648 106.126 40.2748 105.332 40.0815L105.233 40.1782C105.927 40.7581 106.523 41.4347 107.119 42.3046Z" fill="#F9F9F9"/>
<path d="M134.716 26.6466L142.26 44.141C143.253 46.4607 144.345 48.6837 145.635 50.9068L148.514 51.4867V51.68H136.205V51.4867L140.97 50.9068C140.771 49.7469 140.473 48.5871 139.977 47.2339C139.481 45.8808 138.984 44.8176 138.389 43.851H127.469C126.973 45.0109 126.675 45.8808 126.377 46.654C126.079 47.4272 125.781 48.1038 125.583 48.9737C125.285 49.7469 125.186 50.4235 125.086 50.9068L129.653 51.4867V51.68H119.924V51.4867L123.101 50.9068C123.895 49.5536 124.59 48.2005 125.285 46.5574L133.326 26.6466H134.716ZM132.829 31.4793C132.532 32.0592 132.135 32.9291 131.539 34.089C131.043 35.2488 130.546 36.312 130.149 37.2785C129.752 38.2451 129.256 39.3083 128.859 40.4681C128.362 41.628 128.065 42.3046 127.965 42.6912C128.66 42.7878 129.454 42.8845 130.348 42.8845C131.241 42.8845 132.135 42.9812 132.929 42.9812C134.914 42.9812 136.602 42.8845 137.892 42.7878C137.495 41.5313 136.701 39.6949 135.609 37.3752C134.616 34.9589 133.723 33.0258 132.829 31.4793ZM133.127 30.0295L142.161 51.1001H143.352L133.723 28.6763L133.127 30.0295Z" fill="#F9F9F9"/>
<path d="M162.213 51.68H149.109V51.4867L153.378 50.9068C153.577 49.457 153.676 47.8138 153.775 45.7841C153.874 43.7544 153.874 41.8213 153.874 39.8882V37.0852C153.874 33.2191 153.676 30.0295 153.378 27.6131L149.109 27.0332V26.8399H162.213V27.0332L157.845 27.6131C157.746 28.6763 157.647 29.7395 157.547 30.6094C157.448 31.4793 157.448 32.5425 157.349 33.799C157.349 35.0555 157.25 36.2153 157.25 37.3752V41.1447C157.25 41.8213 157.25 42.9811 157.349 44.5276C157.448 46.0741 157.448 47.4272 157.547 48.4904C157.647 49.5536 157.746 50.4235 157.845 50.9068L162.114 51.4867V51.68H162.213ZM154.371 27.6131V51.1001H155.562V27.6131H154.371Z" fill="#F9F9F9"/>
<path d="M162.511 27.1299V26.9366H180.975L181.372 32.1559H181.074L179.784 27.9998C178.791 27.9031 177.699 27.9031 176.508 27.9031C174.225 27.9031 172.438 28.0964 171.147 28.3864C170.949 30.2228 170.85 32.3492 170.85 34.6689C170.85 36.1187 170.85 37.2786 170.949 38.2451C172.736 38.3418 173.927 38.4384 174.423 38.4384C175.714 38.4384 177.103 38.3418 178.493 38.2451L179.287 35.3455H179.585V42.5945H179.287L178.493 39.5016C177.501 39.405 176.409 39.3083 175.118 39.3083C173.629 39.3083 172.239 39.405 170.949 39.5016C170.75 40.8548 170.75 42.1113 170.85 43.3678C170.85 45.0109 170.949 46.2674 170.949 47.3306C170.949 48.3938 171.048 49.2637 171.147 50.0369C172.537 50.4235 174.423 50.6169 176.706 50.6169C177.997 50.6169 179.188 50.5202 180.082 50.4235L181.471 46.364H181.67L181.273 51.68H162.511V51.4867L166.68 50.9068C166.779 50.4235 166.879 49.7469 166.978 48.7804C167.077 47.8139 167.077 46.7507 167.177 45.5908C167.276 44.431 167.276 43.4644 167.276 42.5945C167.276 41.8213 167.276 41.1447 167.276 40.4681V36.2154C167.276 35.6354 167.276 34.8622 167.177 33.8957C167.177 32.9291 167.077 31.8659 166.978 30.8027C166.879 29.7395 166.779 28.6763 166.68 27.6131L162.511 27.1299ZM167.772 27.6131V51.1001H168.963V27.6131H167.772Z" fill="#F9F9F9"/>
<path d="M195.072 27.1299L190.505 27.7098C191.2 29.9329 192.193 32.6392 193.583 35.8288L195.965 41.3381C196.462 42.5946 197.256 44.2377 198.348 46.1708C198.745 45.4942 199.241 44.5276 199.837 43.3678C200.432 42.2079 200.929 41.0481 201.326 40.0816L204.006 33.799C205.098 31.286 205.793 29.3529 206.19 27.9031L200.929 27.3232V27.1299H211.352V27.2266L208.175 27.9031C207.48 28.9663 206.488 30.9961 205.197 33.9923L199.241 47.6206C198.447 49.5537 197.752 51.1968 197.355 52.55H197.156C196.462 50.7135 195.767 48.8771 194.972 47.234L189.413 34.6689C188.421 32.3492 187.229 30.0295 185.939 27.8065L182.862 27.2266V27.0332H194.972V27.1299H195.072ZM186.932 27.6132L196.859 50.2302L197.454 48.8771L188.123 27.6132H186.932Z" fill="#F9F9F9"/>
<path d="M212.94 45.7842L214.231 49.9403C214.925 50.2302 215.62 50.4236 216.514 50.6169C217.407 50.8102 218.201 50.9068 218.797 50.9068C219.69 50.9068 220.485 50.7135 221.179 50.4235C221.874 50.1336 222.47 49.747 222.966 49.2637C223.463 48.7804 223.76 48.2972 224.058 47.7172C224.257 47.1373 224.455 46.5574 224.455 46.0741C224.455 44.9143 224.058 44.0444 223.264 43.2711C222.47 42.4979 221.179 41.5314 219.393 40.3715C217.606 39.2117 216.216 38.1485 215.422 37.3752C214.727 36.6987 214.231 35.9254 213.833 35.2488C213.536 34.5723 213.337 33.7024 213.337 32.8325C213.337 31.8659 213.635 30.8994 214.131 29.9329C214.628 28.9663 215.521 28.1931 216.613 27.5165C217.705 26.8399 219.194 26.55 220.782 26.55C221.576 26.55 222.371 26.55 223.165 26.6466C224.058 26.7433 224.555 26.7433 224.952 26.7433C225.249 26.7433 225.448 26.7433 225.746 26.7433C225.944 26.7433 226.143 26.7433 226.341 26.7433C226.441 26.7433 226.639 26.7433 226.838 26.6466L226.937 32.4459H226.738L225.647 28.5797C224.058 27.9031 222.668 27.5165 221.477 27.5165C220.485 27.5165 219.591 27.7098 218.797 28.0964C218.003 28.483 217.407 28.9663 216.911 29.6429C216.514 30.3195 216.216 30.9961 216.216 31.7693C216.216 32.6392 216.514 33.4124 217.109 34.089C217.705 34.7656 218.499 35.4421 219.492 36.1187C220.485 36.7953 221.576 37.4719 222.768 38.2451C223.959 39.0183 224.852 39.6949 225.547 40.3715C226.937 41.7247 227.632 43.2711 227.632 45.0109C227.632 45.9774 227.334 47.0407 226.838 48.1039C226.341 49.167 225.448 50.0369 224.157 50.8102C222.867 51.5834 221.279 51.8734 219.293 51.8734C218.598 51.8734 217.705 51.8734 216.712 51.7767C215.72 51.68 214.925 51.68 214.528 51.68C214.33 51.68 214.131 51.68 214.032 51.68C213.933 51.68 213.734 51.68 213.436 51.7767C213.139 51.7767 213.039 51.7767 212.94 51.7767L212.642 45.7842H212.94ZM221.378 26.9366H220.782C219.492 26.9366 218.301 27.2265 217.209 27.7098C216.117 28.1931 215.322 28.8697 214.628 29.8362C214.032 30.7061 213.734 31.7693 213.734 32.9291C213.734 34.3789 214.33 35.7321 215.62 36.9886C216.216 37.4719 216.712 37.9552 217.209 38.3418C217.705 38.7284 218.4 39.2117 219.393 39.8882C220.385 40.5648 221.179 41.0481 221.775 41.5314C222.371 41.918 222.867 42.4013 223.264 42.7879C224.356 43.8511 224.852 44.9143 224.852 46.1708C224.852 47.0407 224.654 47.8139 224.157 48.6838C223.661 49.457 222.966 50.1336 222.073 50.6169C221.179 51.1001 220.087 51.3901 218.896 51.3901V51.5834C220.286 51.5834 221.576 51.3901 222.668 50.8102C223.76 50.3269 224.654 49.5537 225.249 48.6838C225.845 47.8139 226.143 46.944 226.143 45.9774C226.143 45.2042 226.044 44.431 225.746 43.7544C225.448 43.0778 224.952 42.4013 224.257 41.7247C223.86 41.3381 223.165 40.7581 222.073 40.0816C220.981 39.405 219.988 38.6317 218.896 37.9552C217.804 37.2786 217.01 36.602 216.514 36.2154C215.322 35.0555 214.727 33.7024 214.727 32.3492C214.727 31.0927 215.322 29.9329 216.414 28.8697C217.506 27.8065 219.194 27.2265 221.378 27.1299V26.9366Z" fill="#F9F9F9"/>
<path d="M241.928 51.5834V51.7767H228.923V51.5834L232.894 51.1001C232.993 50.1336 233.192 49.0704 233.192 47.7172C233.291 46.3641 233.39 45.1076 233.39 43.8511C233.49 42.5946 233.49 41.4347 233.49 40.4682V35.7321C233.49 34.379 233.49 32.9291 233.39 31.3827C233.291 29.8362 233.192 28.6764 232.993 27.8065L228.923 27.2266V27.0332H242.027V27.2266L237.46 27.8065C237.361 28.5797 237.262 29.7396 237.163 31.0927C237.063 32.4459 237.063 33.4124 237.063 34.089V38.4384C237.857 37.9552 238.751 37.1819 239.744 36.4087C240.736 35.5388 241.828 34.5723 243.019 33.4124C245.501 31.0927 247.387 29.2563 248.579 27.8065L244.509 27.2266V27.0332H254.435V27.2266L251.06 27.7098C250.762 27.9031 250.266 28.2897 249.571 28.8697C248.876 29.4496 248.082 30.2228 247.09 31.0927C246.097 31.9626 245.104 32.9291 243.913 33.8957C242.821 34.9589 241.927 35.6355 241.332 36.2154C242.027 37.3752 243.019 38.7284 244.509 40.3715L248.38 44.9143C250.663 47.6206 252.649 49.5537 254.237 50.9068L257.414 51.4868V51.68H245.203V51.4868L248.479 50.9068C247.784 49.747 246.891 48.3938 245.7 46.944C244.509 45.4942 243.317 43.9477 242.027 42.4979C240.736 41.0481 239.545 39.6949 238.552 38.6317L236.865 40.0816V43.7544C236.865 44.431 236.865 45.5909 236.964 47.234C237.063 48.8771 237.163 50.1336 237.262 50.8102L241.928 51.5834ZM233.986 27.6132V51.1001H235.276V27.6132H233.986ZM239.843 37.4719L239.049 38.2451L249.968 51.1001H251.457L239.843 37.4719Z" fill="#F9F9F9"/>
<path d="M271.211 51.68H258.107V51.4867L262.376 50.9068C262.574 49.457 262.674 47.8138 262.773 45.7841C262.872 43.7544 262.872 41.8213 262.872 39.8882V37.0852C262.872 33.2191 262.674 30.0295 262.376 27.6131L258.107 27.0332V26.8399H271.211V27.0332L266.843 27.6131C266.744 28.6763 266.644 29.7395 266.545 30.6094C266.446 31.4793 266.446 32.5425 266.347 33.799C266.347 35.0555 266.247 36.2153 266.247 37.3752V41.1447C266.247 41.8213 266.247 42.9811 266.347 44.5276C266.446 46.0741 266.446 47.4272 266.545 48.4904C266.644 49.5536 266.744 50.4235 266.843 50.9068L271.112 51.4867V51.68H271.211ZM263.369 27.6131V51.1001H264.56V27.6131H263.369Z" fill="#F9F9F9"/>
<path d="M275.083 27.7098L271.609 27.1298V26.9365H285.11V27.1298L279.948 27.7098C280.742 29.3529 281.834 31.286 283.223 33.509C284.613 35.7321 285.904 37.5685 286.996 38.9217C288.187 37.5685 289.676 35.7321 291.264 33.4124C292.952 31.0927 294.143 29.1596 294.937 27.6131L289.874 27.0332V26.8399H300V27.0332L297.022 27.6131C296.327 28.3863 295.632 29.2562 295.037 30.0295C294.441 30.8993 293.547 31.9625 292.555 33.4124C291.562 34.7655 290.768 35.9254 290.172 36.7953C289.577 37.6651 288.683 38.9216 287.591 40.6614C287.492 42.0146 287.492 43.5611 287.492 45.3008C287.492 47.6205 287.691 49.457 287.988 50.9068L292.257 51.4867V51.68H279.054V51.4867L283.323 50.9068C283.521 50.2302 283.62 49.2636 283.72 48.0071C283.819 46.7506 283.918 45.5908 283.918 44.5276C283.918 43.7544 283.918 42.4012 283.819 40.7581C283.124 39.5982 282.33 38.1484 281.238 36.5053C280.245 34.8622 279.153 33.2191 278.061 31.6726C276.969 30.1261 275.977 28.773 275.083 27.7098ZM284.514 51.0034H285.705V40.4681L277.466 27.5165H276.175L284.514 40.5648V51.0034Z" fill="#F9F9F9"/>
</svg>
