<svg width="71" height="40" viewBox="0 0 71 40" fill="none" xmlns="http://www.w3.org/2000/svg">
<path d="M24.042 19.53V20.97H14.844V19.53H24.042ZM15.906 20.25L14.88 26.586L13.98 25.524H24.528V27H13.152L14.268 20.25L13.152 13.5H24.438V14.976H13.98L14.88 13.914L15.906 20.25ZM39.6116 26.154L38.7836 26.208V13.5H40.4216V27H38.2436L27.9656 14.292L28.7936 14.238V27H27.1556V13.5H29.3516L39.6116 26.154ZM57.053 21.114C57.041 21.966 56.873 22.764 56.549 23.508C56.237 24.252 55.787 24.906 55.199 25.47C54.623 26.022 53.921 26.454 53.093 26.766C52.277 27.078 51.359 27.234 50.339 27.234C49.259 27.234 48.263 27.072 47.351 26.748C46.451 26.412 45.665 25.938 44.993 25.326C44.333 24.714 43.823 23.982 43.463 23.13C43.103 22.266 42.923 21.306 42.923 20.25C42.923 19.194 43.103 18.24 43.463 17.388C43.835 16.524 44.357 15.786 45.029 15.174C45.701 14.562 46.493 14.094 47.405 13.77C48.317 13.434 49.325 13.266 50.429 13.266C51.749 13.266 52.913 13.488 53.921 13.932C54.941 14.376 55.763 14.988 56.387 15.768C57.011 16.536 57.383 17.418 57.503 18.414H55.775C55.643 17.682 55.337 17.046 54.857 16.506C54.377 15.954 53.759 15.528 53.003 15.228C52.259 14.928 51.389 14.778 50.393 14.778C49.229 14.778 48.215 15 47.351 15.444C46.499 15.888 45.833 16.518 45.353 17.334C44.885 18.15 44.651 19.122 44.651 20.25C44.651 21.366 44.891 22.338 45.371 23.166C45.851 23.994 46.529 24.63 47.405 25.074C48.281 25.518 49.307 25.74 50.483 25.74C51.635 25.74 52.637 25.53 53.489 25.11C54.353 24.69 55.025 24.114 55.505 23.382C55.985 22.65 56.237 21.81 56.261 20.862L57.053 21.114ZM51.149 21.852V20.502H57.665V27H56.351L56.189 21.276L56.657 21.852H51.149Z" fill="#F9F9F9"/>
</svg>
