<svg width="60" height="40" viewBox="0 0 60 40" fill="none" xmlns="http://www.w3.org/2000/svg">
<rect width="60" height="40" rx="20" fill="#F9F9F9"/>
<path d="M12.77 27L14.858 23.436H14.894L20.726 13.5H22.598L14.624 27H12.77ZM14.984 24.768L8.306 13.5H10.196L16.028 23.346L14.984 24.768ZM24.4388 27V13.5H26.1308V25.488L25.5368 25.218L35.2928 13.5H37.1648L25.9148 27H24.4388ZM30.8468 20.034L31.9808 18.72L37.3808 27H35.4188L30.8468 20.034ZM46.0109 13.5C46.9589 13.5 47.7809 13.668 48.4769 14.004C49.1729 14.34 49.7129 14.814 50.0969 15.426C50.4809 16.026 50.6729 16.722 50.6729 17.514C50.6729 18.306 50.4809 19.008 50.0969 19.62C49.7129 20.22 49.1729 20.694 48.4769 21.042C47.7809 21.378 46.9589 21.546 46.0109 21.546H39.8549V20.07H45.9749C46.8869 20.07 47.6069 19.842 48.1349 19.386C48.6749 18.918 48.9449 18.294 48.9449 17.514C48.9449 16.734 48.6749 16.116 48.1349 15.66C47.6069 15.204 46.8869 14.976 45.9749 14.976H40.0349L40.7909 14.148V27H39.0989V13.5H46.0109Z" fill="#111111"/>
</svg>
