<svg width="56" height="56" viewBox="0 0 56 56" fill="none" xmlns="http://www.w3.org/2000/svg">
<circle cx="28" cy="28" r="27.5" stroke="#F9F9F9"/>
<path d="M28 32C29.0609 32 30.0783 31.5786 30.8284 30.8284C31.5786 30.0783 32 29.0609 32 28C32 26.9391 31.5786 25.9217 30.8284 25.1716C30.0783 24.4214 29.0609 24 28 24C26.9391 24 25.9217 24.4214 25.1716 25.1716C24.4214 25.9217 24 26.9391 24 28C24 29.0609 24.4214 30.0783 25.1716 30.8284C25.9217 31.5786 26.9391 32 28 32Z" stroke="#F9F9F9" stroke-width="2" stroke-linecap="round" stroke-linejoin="round"/>
<path d="M19 32V24C19 22.6739 19.5268 21.4021 20.4645 20.4645C21.4021 19.5268 22.6739 19 24 19H32C33.3261 19 34.5979 19.5268 35.5355 20.4645C36.4732 21.4021 37 22.6739 37 24V32C37 33.3261 36.4732 34.5979 35.5355 35.5355C34.5979 36.4732 33.3261 37 32 37H24C22.6739 37 21.4021 36.4732 20.4645 35.5355C19.5268 34.5979 19 33.3261 19 32Z" stroke="#F9F9F9" stroke-width="2"/>
<path d="M33.5 22.51L33.51 22.499" stroke="#F9F9F9" stroke-width="2" stroke-linecap="round" stroke-linejoin="round"/>
</svg>
